<svg xmlns="http://www.w3.org/2000/svg" width="21" height="20" viewBox="0 0 21 20" fill="none">
  <g clip-path="url(#clip0_1_851)">
    <path d="M4.93027 16.1987C5.4372 15.0044 6.62079 14.1667 8.00002 14.1667H13C14.3793 14.1667 15.5628 15.0044 16.0698 16.1987M13.8334 7.9167C13.8334 9.75765 12.341 11.25 10.5 11.25C8.65907 11.25 7.16669 9.75765 7.16669 7.9167C7.16669 6.07575 8.65907 4.58337 10.5 4.58337C12.341 4.58337 13.8334 6.07575 13.8334 7.9167ZM18.8334 10C18.8334 14.6024 15.1024 18.3334 10.5 18.3334C5.89765 18.3334 2.16669 14.6024 2.16669 10C2.16669 5.39766 5.89765 1.6667 10.5 1.6667C15.1024 1.6667 18.8334 5.39766 18.8334 10Z" stroke="#444444" stroke-width="1.4" stroke-linecap="round" stroke-linejoin="round"/>
  </g>
  <defs>
    <clipPath id="clip0_1_851">
      <rect width="20" height="20" fill="white" transform="translate(0.5 3.05176e-05)"/>
    </clipPath>
  </defs>
</svg>